<svg xmlns="http://www.w3.org/2000/svg" width="731.772" height="766.022" viewBox="0 0 731.772 766.022">
  <g id="Grupo_13517" data-name="Grupo 13517" transform="translate(-351.586 -6366.674)">
    <rect id="Rectángulo_3369" data-name="Rectángulo 3369" width="731.772" height="181.15" transform="translate(351.586 6476.882)" fill="#fff0d3"/>
    <rect id="Rectángulo_3370" data-name="Rectángulo 3370" width="731.772" height="35.903" transform="translate(351.586 6513.375)" fill="#ffe7c4"/>
    <rect id="Rectángulo_3371" data-name="Rectángulo 3371" width="731.772" height="35.903" transform="translate(351.586 6585.771)" fill="#ffe7c4"/>
    <rect id="Rectángulo_3372" data-name="Rectángulo 3372" width="731.772" height="5.122" transform="translate(351.586 6471.759)" fill="#ffca7d"/>
    <path id="Rectángulo_3373" data-name="Rectángulo 3373" d="M4,0H727.772a4,4,0,0,1,4,4V54.289a0,0,0,0,1,0,0H0a0,0,0,0,1,0,0V4A4,4,0,0,1,4,0Z" transform="translate(351.586 6417.471)" fill="#33bdb0"/>
    <rect id="Rectángulo_3374" data-name="Rectángulo 3374" width="731.772" height="108.89" transform="translate(351.586 6786.516)" fill="#fff0d3"/>
    <rect id="Rectángulo_3375" data-name="Rectángulo 3375" width="731.772" height="35.903" transform="translate(351.586 6823.009)" fill="#ffe7c4"/>
    <rect id="Rectángulo_3376" data-name="Rectángulo 3376" width="731.772" height="39.556" transform="translate(351.586 6746.959)" fill="#ffca7d"/>
    <path id="Rectángulo_3377" data-name="Rectángulo 3377" d="M4,0H727.772a4,4,0,0,1,4,4V54.289a0,0,0,0,1,0,0H0a0,0,0,0,1,0,0V4A4,4,0,0,1,4,0Z" transform="translate(351.586 6692.67)" fill="#33bdb0"/>
    <rect id="Rectángulo_3378" data-name="Rectángulo 3378" width="731.772" height="108.89" transform="translate(351.586 7023.807)" fill="#fff0d3"/>
    <rect id="Rectángulo_3379" data-name="Rectángulo 3379" width="731.772" height="35.903" transform="translate(351.586 7060.301)" fill="#ffe7c4"/>
    <rect id="Rectángulo_3380" data-name="Rectángulo 3380" width="731.772" height="39.556" transform="translate(351.586 6984.251)" fill="#ffca7d"/>
    <path id="Rectángulo_3381" data-name="Rectángulo 3381" d="M4,0H727.772a4,4,0,0,1,4,4V54.289a0,0,0,0,1,0,0H0a0,0,0,0,1,0,0V4A4,4,0,0,1,4,0Z" transform="translate(351.586 6929.962)" fill="#33bdb0"/>
    <text id="Modelo_formato_de_especificación_de_casos_de_uso" data-name="Modelo formato de especificación de casos de uso" transform="translate(719.307 6387.674)" fill="#008275" font-size="22" font-family="Montserrat-SemiBold, Montserrat" font-weight="600"><tspan x="-285.824" y="0">Modelo formato de especificación de casos de uso</tspan></text>
    <text id="Caso_de_uso" data-name="Caso de uso" transform="translate(369.957 6482.36)" fill="#805413" font-size="18" font-family="OpenSans-Regular, Open Sans"><tspan x="44.408" y="19">Caso de uso</tspan></text>
    <text id="Nro." transform="translate(369.957 6753.852)" fill="#805413" font-size="18" font-family="OpenSans-Bold, Open Sans" font-weight="700"><tspan x="45.735" y="19">Nro.</tspan></text>
    <text id="Descripción" transform="translate(676.037 6753.852)" fill="#805413" font-size="18" font-family="OpenSans-Bold, Open Sans" font-weight="700"><tspan x="12.807" y="19">Descripción</tspan></text>
    <text id="Breve_descripción" data-name="Breve descripción" transform="translate(369.957 6518.559)" fill="#805413" font-size="18" font-family="OpenSans-Regular, Open Sans"><tspan x="20.735" y="19">Breve descripción</tspan></text>
    <text id="Actores" transform="translate(369.957 6554.837)" fill="#805413" font-size="18" font-family="OpenSans-Regular, Open Sans"><tspan x="63.705" y="19">Actores</tspan></text>
    <text id="Pre_condición" data-name="Pre condición" transform="translate(369.957 6590.954)" fill="#805413" font-size="18" font-family="OpenSans-Regular, Open Sans"><tspan x="38.278" y="19">Pre condición</tspan></text>
    <text id="Post_condición" data-name="Post condición" transform="translate(369.957 6627.313)" fill="#805413" font-size="18" font-family="OpenSans-Regular, Open Sans"><tspan x="34.094" y="19">Post condición</tspan></text>
    <text id="INFORMACION_INICIAL" data-name="INFORMACION INICIAL" transform="translate(571.021 6430.813)" fill="#fff" font-size="20" font-family="OpenSans-SemiBold, Open Sans" font-weight="600"><tspan x="37.095" y="21">INFORMACION INICIAL</tspan></text>
    <text id="FLUJO_DE_EVENTOS_NORMAL" data-name="FLUJO DE EVENTOS NORMAL" transform="translate(571.021 6706.013)" fill="#fff" font-size="20" font-family="OpenSans-SemiBold, Open Sans" font-weight="600"><tspan x="9.117" y="21">FLUJO DE EVENTOS NORMAL</tspan></text>
    <text id="Nro.-2" data-name="Nro." transform="translate(369.957 6991.143)" fill="#805413" font-size="18" font-family="OpenSans-Bold, Open Sans" font-weight="700"><tspan x="45.735" y="19">Nro.</tspan></text>
    <text id="Descripción-2" data-name="Descripción" transform="translate(676.037 6991.143)" fill="#805413" font-size="18" font-family="OpenSans-Bold, Open Sans" font-weight="700"><tspan x="12.807" y="19">Descripción</tspan></text>
    <text id="FLUJO_DE_EVENTOS_AL_TERNO" data-name="FLUJO DE EVENTOS AL TERNO" transform="translate(571.021 6943.305)" fill="#fff" font-size="20" font-family="OpenSans-SemiBold, Open Sans" font-weight="600"><tspan x="4.507" y="21">FLUJO DE EVENTOS AL TERNO</tspan></text>
  </g>
</svg>
