<svg xmlns="http://www.w3.org/2000/svg" width="729.162" height="155.205" viewBox="0 0 729.162 155.205">
  <g id="Grupo_13503" data-name="Grupo 13503" transform="translate(2683.673 -3497.998)">
    <text id="Niveles_de_encapsulación" data-name="Niveles de encapsulación" transform="translate(-2319.093 3518.998)" fill="#008275" font-size="22" font-family="Montserrat-SemiBold, Montserrat" font-weight="600"><tspan x="-143.594" y="0">Niveles de encapsulación</tspan></text>
    <g id="Grupo_12653" data-name="Grupo 12653">
      <g id="Grupo_12648" data-name="Grupo 12648">
        <rect id="Rectángulo_3246" data-name="Rectángulo 3246" width="217.556" height="5.122" transform="translate(-2683.673 3600.657)" fill="#ffca7d"/>
        <rect id="Rectángulo_3247" data-name="Rectángulo 3247" width="217.556" height="44.185" transform="translate(-2683.673 3605.779)" fill="#ffe7ba"/>
        <text id="Sólo_la_misma_clase" data-name="Sólo la misma clase" transform="translate(-2673.602 3615.203)" fill="#805413" font-size="18" font-family="OpenSans-Regular, Open Sans"><tspan x="17.096" y="19">Sólo la misma clase</tspan></text>
        <g id="Grupo_12647" data-name="Grupo 12647">
          <path id="Rectángulo_3248" data-name="Rectángulo 3248" d="M4,0H213.556a4,4,0,0,1,4,4V54.289a0,0,0,0,1,0,0H0a0,0,0,0,1,0,0V4A4,4,0,0,1,4,0Z" transform="translate(-2683.673 3546.368)" fill="#33bdb0"/>
          <text id="Privado" transform="translate(-2673.602 3558.712)" fill="#fff" font-size="20" font-family="OpenSans-SemiBold, Open Sans" font-weight="600"><tspan x="61.963" y="21">Privado</tspan></text>
        </g>
      </g>
      <g id="Grupo_12650" data-name="Grupo 12650">
        <rect id="Rectángulo_3249" data-name="Rectángulo 3249" width="217.556" height="5.122" transform="translate(-2427.871 3600.657)" fill="#ffca7d"/>
        <rect id="Rectángulo_3250" data-name="Rectángulo 3250" width="217.556" height="44.185" transform="translate(-2427.871 3605.779)" fill="#ffe7ba"/>
        <text id="Clases_padre_e_hijo" data-name="Clases padre e hijo" transform="translate(-2417.799 3615.203)" fill="#805413" font-size="18" font-family="OpenSans-Regular, Open Sans"><tspan x="19.776" y="19">Clases padre e hijo</tspan></text>
        <g id="Grupo_12649" data-name="Grupo 12649">
          <path id="Rectángulo_3251" data-name="Rectángulo 3251" d="M4,0H213.556a4,4,0,0,1,4,4V54.289a0,0,0,0,1,0,0H0a0,0,0,0,1,0,0V4A4,4,0,0,1,4,0Z" transform="translate(-2427.871 3546.368)" fill="#33bdb0"/>
          <text id="Protegido" transform="translate(-2417.799 3558.712)" fill="#fff" font-size="20" font-family="OpenSans-SemiBold, Open Sans" font-weight="600"><tspan x="51.753" y="21">Protegido</tspan></text>
        </g>
      </g>
      <g id="Grupo_12652" data-name="Grupo 12652">
        <rect id="Rectángulo_3252" data-name="Rectángulo 3252" width="217.556" height="5.122" transform="translate(-2172.068 3600.657)" fill="#ffca7d"/>
        <rect id="Rectángulo_3253" data-name="Rectángulo 3253" width="217.556" height="44.185" transform="translate(-2172.068 3605.779)" fill="#ffe7ba"/>
        <text id="Todas_las_clases" data-name="Todas las clases" transform="translate(-2161.996 3615.203)" fill="#805413" font-size="18" font-family="OpenSans-Regular, Open Sans"><tspan x="32.024" y="19">Todas las clases</tspan></text>
        <g id="Grupo_12651" data-name="Grupo 12651">
          <path id="Rectángulo_3254" data-name="Rectángulo 3254" d="M4,0H213.556a4,4,0,0,1,4,4V54.289a0,0,0,0,1,0,0H0a0,0,0,0,1,0,0V4A4,4,0,0,1,4,0Z" transform="translate(-2172.068 3546.368)" fill="#33bdb0"/>
          <text id="Público" transform="translate(-2161.996 3558.712)" fill="#fff" font-size="20" font-family="OpenSans-SemiBold, Open Sans" font-weight="600"><tspan x="63.34" y="21">Público</tspan></text>
        </g>
      </g>
    </g>
  </g>
</svg>
