<svg xmlns="http://www.w3.org/2000/svg" width="729.162" height="499.615" viewBox="0 0 729.162 499.615">
  <g id="Grupo_13513" data-name="Grupo 13513" transform="translate(-354.727 -3175.901)">
    <rect id="Rectángulo_3385" data-name="Rectángulo 3385" width="729.162" height="391.834" transform="translate(354.727 3283.682)" fill="#fff0d3"/>
    <rect id="Rectángulo_3386" data-name="Rectángulo 3386" width="729.162" height="138.983" transform="translate(354.727 3422.533)" fill="#ffe7c4"/>
    <text id="Tabla_1._Componentes_del_diagrama_de_casos_de_uso" data-name="Tabla 1. Componentes del diagrama de casos de uso" transform="translate(719.307 3196.901)" fill="#008275" font-size="22" font-family="Montserrat-SemiBold, Montserrat" font-weight="600"><tspan x="-294.283" y="0">Tabla 1. Componentes del diagrama de casos de uso</tspan></text>
    <text id="Actores" transform="translate(405.699 3339.343)" fill="#805413" font-size="18" font-family="OpenSans-Regular, Open Sans"><tspan x="26.196" y="19">Actores</tspan></text>
    <text id="Casos_de_uso" data-name="Casos de uso" transform="translate(405.699 3478.41)" fill="#805413" font-size="18" font-family="OpenSans-Regular, Open Sans"><tspan x="2.606" y="19">Casos de uso</tspan></text>
    <text id="Relaciones" transform="translate(405.699 3606.802)" fill="#805413" font-size="18" font-family="OpenSans-Regular, Open Sans"><tspan x="13.047" y="19">Relaciones</tspan></text>
    <path id="Rectángulo_3418" data-name="Rectángulo 3418" d="M4,0H725.162a4,4,0,0,1,4,4V54.289a0,0,0,0,1,0,0H0a0,0,0,0,1,0,0V4A4,4,0,0,1,4,0Z" transform="translate(354.727 3224.271)" fill="#33bdb0"/>
    <text id="Elemento" transform="translate(405.699 3237.615)" fill="#fff" font-size="20" font-family="OpenSans-SemiBold, Open Sans" font-weight="600"><tspan x="11.966" y="21">Elemento</tspan></text>
    <text id="Personas_o_sistemas_que_interactéan_con_la_aplicación_programada." data-name="Personas o sistemas que interactéan con la aplicación programada." transform="translate(591.8 3315.719)" fill="#805413" font-size="18" font-family="OpenSans-Regular, Open Sans"><tspan x="23.515" y="19">Personas o sistemas que </tspan><tspan x="8.336" y="40.6">interactéan con la aplicación </tspan><tspan x="72.98" y="62.2">programada.</tspan></text>
    <text id="Consiste_en_una_función_que_va_a_satisfacer_cierto_requisito._El_nombre_debe_conformarse_con_un_verbo_en_infinitivo_más_un_complemento." data-name="Consiste en una función que va a satisfacer cierto requisito. El nombre debe conformarse con un verbo en infinitivo más un complemento." transform="translate(591.8 3434.558)" fill="#805413" font-size="18" font-family="OpenSans-Regular, Open Sans"><tspan x="8.095" y="19">Consiste en una función que </tspan><tspan x="0.013" y="40.6">va a satisfacer cierto requisito. </tspan><tspan x="4.715" y="62.2">El nombre debe conformarse </tspan><tspan x="0.773" y="83.8">con un verbo en infinitivo más </tspan><tspan x="53.235" y="105.4">un complemento.</tspan></text>
    <text id="Interacción_entre_el_actor_y_los_casos_de_uso_o_entre_los_casos_de_uso_entre_sí." data-name="Interacción entre el actor y los casos de uso o entre los casos de uso entre sí." transform="translate(591.8 3583.929)" fill="#805413" font-size="18" font-family="OpenSans-Regular, Open Sans"><tspan x="1.156" y="19">Interacción entre el actor y los </tspan><tspan x="1.121" y="40.6">casos de uso o entre los casos </tspan><tspan x="63.237" y="62.2">de uso entre sí.</tspan></text>
    <text id="Descripción" transform="translate(620.601 3237.615)" fill="#fff" font-size="20" font-family="OpenSans-SemiBold, Open Sans" font-weight="600"><tspan x="42.261" y="21">Descripción</tspan></text>
    <text id="Símbolo" transform="translate(876.403 3237.615)" fill="#fff" font-size="20" font-family="OpenSans-SemiBold, Open Sans" font-weight="600"><tspan x="59.624" y="21">Símbolo</tspan></text>
    <ellipse id="Elipse_137" data-name="Elipse 137" cx="74.8" cy="33.677" rx="74.8" ry="33.677" transform="translate(900.31 3457.501)" fill="none" stroke="#805413" stroke-miterlimit="10" stroke-width="2"/>
    <g id="Grupo_13354" data-name="Grupo 13354">
      <line id="Línea_468" data-name="Línea 468" x2="149.6" transform="translate(900.31 3580.978)" fill="none" stroke="#805413" stroke-linecap="round" stroke-miterlimit="10" stroke-width="2"/>
      <g id="Grupo_13351" data-name="Grupo 13351">
        <line id="Línea_469" data-name="Línea 469" x2="149.6" transform="translate(900.31 3601.705)" fill="none" stroke="#805413" stroke-linecap="round" stroke-miterlimit="10" stroke-width="2"/>
        <path id="Trazado_6200" data-name="Trazado 6200" d="M1054.2,3602.852l-8.672,4.336a1.282,1.282,0,0,1-1.855-1.147v-8.672a1.281,1.281,0,0,1,1.855-1.146l8.672,4.336A1.282,1.282,0,0,1,1054.2,3602.852Z" fill="#805413"/>
      </g>
      <g id="Grupo_13352" data-name="Grupo 13352">
        <line id="Línea_470" data-name="Línea 470" x2="154.6" transform="translate(900.31 3627.433)" fill="none" stroke="#805413" stroke-linecap="round" stroke-miterlimit="10" stroke-width="2" stroke-dasharray="12"/>
        <path id="Trazado_6201" data-name="Trazado 6201" d="M1044.91,3622.433l10,5-10,5" fill="none" stroke="#805413" stroke-linecap="round" stroke-linejoin="round" stroke-width="2"/>
      </g>
      <g id="Grupo_13353" data-name="Grupo 13353">
        <line id="Línea_471" data-name="Línea 471" x2="154.6" transform="translate(895.31 3653.161)" fill="none" stroke="#805413" stroke-linecap="round" stroke-miterlimit="10" stroke-width="2" stroke-dasharray="12"/>
        <path id="Trazado_6202" data-name="Trazado 6202" d="M905.31,3658.161l-10-5,10-5" fill="none" stroke="#805413" stroke-linecap="round" stroke-linejoin="round" stroke-width="2"/>
      </g>
    </g>
    <g id="Grupo_13355" data-name="Grupo 13355">
      <circle id="Elipse_138" data-name="Elipse 138" cx="18.386" cy="18.386" r="18.386" transform="translate(956.724 3299.832)" fill="none" stroke="#805413" stroke-miterlimit="10" stroke-width="2"/>
      <line id="Línea_472" data-name="Línea 472" y2="39.063" transform="translate(975.11 3336.603)" fill="none" stroke="#805413" stroke-miterlimit="10" stroke-width="2"/>
      <path id="Trazado_6203" data-name="Trazado 6203" d="M955.61,3404.391l19.5-29,19.5,29" fill="none" stroke="#805413" stroke-linecap="round" stroke-miterlimit="10" stroke-width="2"/>
      <line id="Línea_473" data-name="Línea 473" x1="49.02" transform="translate(950.6 3356.135)" fill="none" stroke="#805413" stroke-linecap="round" stroke-miterlimit="10" stroke-width="2"/>
    </g>
  </g>
</svg>
